<mxfile host="app.diagrams.net" agent="Mozilla/5.0 (Windows NT 10.0; Win64; x64; rv:130.0) Gecko/20100101 Firefox/130.0" version="24.7.8">
  <diagram name="Page-1" id="97xozmK3o49f0KMqHVRg">
    <mxGraphModel dx="1050" dy="530" grid="0" gridSize="10" guides="1" tooltips="1" connect="1" arrows="1" fold="1" page="1" pageScale="1" pageWidth="827" pageHeight="1169" background="#ffffff" math="0" shadow="0">
      <root>
        <mxCell id="0" />
        <mxCell id="1" parent="0" />
        <mxCell id="2a2gIR5KuYaO1N2h6WSE-1" value="Récupération de toute les recettes" style="rounded=1;whiteSpace=wrap;html=1;" parent="1" vertex="1">
          <mxGeometry x="219" y="20" width="350" height="30" as="geometry" />
        </mxCell>
        <mxCell id="2a2gIR5KuYaO1N2h6WSE-11" value="" style="edgeStyle=orthogonalEdgeStyle;rounded=0;orthogonalLoop=1;jettySize=auto;html=1;" parent="1" source="2a2gIR5KuYaO1N2h6WSE-2" target="2a2gIR5KuYaO1N2h6WSE-10" edge="1">
          <mxGeometry relative="1" as="geometry" />
        </mxCell>
        <mxCell id="2a2gIR5KuYaO1N2h6WSE-13" value="Oui" style="edgeLabel;html=1;align=center;verticalAlign=middle;resizable=0;points=[];" parent="2a2gIR5KuYaO1N2h6WSE-11" vertex="1" connectable="0">
          <mxGeometry x="0.075" y="1" relative="1" as="geometry">
            <mxPoint as="offset" />
          </mxGeometry>
        </mxCell>
        <mxCell id="2a2gIR5KuYaO1N2h6WSE-2" value="Recherche effectuer par l&#39;utilisateur égale ou supérieur à 3 caractères" style="rounded=1;whiteSpace=wrap;html=1;" parent="1" vertex="1">
          <mxGeometry x="219" y="90" width="350" height="40" as="geometry" />
        </mxCell>
        <mxCell id="2a2gIR5KuYaO1N2h6WSE-6" value="" style="endArrow=classic;html=1;rounded=0;entryX=1;entryY=0.5;entryDx=0;entryDy=0;" parent="1" target="2a2gIR5KuYaO1N2h6WSE-1" edge="1">
          <mxGeometry width="50" height="50" relative="1" as="geometry">
            <mxPoint x="569" y="110" as="sourcePoint" />
            <mxPoint x="609" y="10" as="targetPoint" />
            <Array as="points">
              <mxPoint x="609" y="110" />
              <mxPoint x="609" y="35" />
            </Array>
          </mxGeometry>
        </mxCell>
        <mxCell id="2a2gIR5KuYaO1N2h6WSE-7" value="Non" style="edgeLabel;html=1;align=center;verticalAlign=middle;resizable=0;points=[];" parent="2a2gIR5KuYaO1N2h6WSE-6" vertex="1" connectable="0">
          <mxGeometry x="-0.0323" y="-1" relative="1" as="geometry">
            <mxPoint as="offset" />
          </mxGeometry>
        </mxCell>
        <mxCell id="2a2gIR5KuYaO1N2h6WSE-8" value="" style="endArrow=classic;html=1;rounded=0;entryX=0.5;entryY=0;entryDx=0;entryDy=0;exitX=0.5;exitY=1;exitDx=0;exitDy=0;" parent="1" source="2a2gIR5KuYaO1N2h6WSE-1" target="2a2gIR5KuYaO1N2h6WSE-2" edge="1">
          <mxGeometry width="50" height="50" relative="1" as="geometry">
            <mxPoint x="369" y="90" as="sourcePoint" />
            <mxPoint x="419" y="40" as="targetPoint" />
          </mxGeometry>
        </mxCell>
        <mxCell id="2a2gIR5KuYaO1N2h6WSE-9" value="Remplissage de l&#39;input par l&#39;utilisateur" style="edgeLabel;html=1;align=center;verticalAlign=middle;resizable=0;points=[];" parent="2a2gIR5KuYaO1N2h6WSE-8" vertex="1" connectable="0">
          <mxGeometry x="-0.1" relative="1" as="geometry">
            <mxPoint as="offset" />
          </mxGeometry>
        </mxCell>
        <mxCell id="2a2gIR5KuYaO1N2h6WSE-10" value="Emploi des méthode de tris (boucle ou tableau suivant la branche utilisée)" style="rounded=1;whiteSpace=wrap;html=1;" parent="1" vertex="1">
          <mxGeometry x="219" y="210" width="350" height="40" as="geometry" />
        </mxCell>
        <mxCell id="2a2gIR5KuYaO1N2h6WSE-14" value="" style="endArrow=classic;html=1;rounded=0;exitX=0;exitY=0.5;exitDx=0;exitDy=0;" parent="1" source="2a2gIR5KuYaO1N2h6WSE-10" edge="1">
          <mxGeometry width="50" height="50" relative="1" as="geometry">
            <mxPoint x="80" y="340" as="sourcePoint" />
            <mxPoint x="100" y="400" as="targetPoint" />
            <Array as="points">
              <mxPoint x="100" y="230" />
            </Array>
          </mxGeometry>
        </mxCell>
        <mxCell id="2a2gIR5KuYaO1N2h6WSE-15" value="&lt;div&gt;Recherche &lt;b&gt;non contenu&lt;/b&gt; dans&amp;nbsp;&lt;/div&gt;&lt;div&gt;les éléments de la recettes&lt;/div&gt;&lt;div&gt;(titre, ingrédients, description, etc.)&lt;br&gt;&lt;/div&gt;" style="edgeLabel;html=1;align=center;verticalAlign=middle;resizable=0;points=[];" parent="2a2gIR5KuYaO1N2h6WSE-14" vertex="1" connectable="0">
          <mxGeometry x="0.0588" relative="1" as="geometry">
            <mxPoint as="offset" />
          </mxGeometry>
        </mxCell>
        <mxCell id="2a2gIR5KuYaO1N2h6WSE-18" value="" style="edgeStyle=orthogonalEdgeStyle;rounded=0;orthogonalLoop=1;jettySize=auto;html=1;" parent="1" source="2a2gIR5KuYaO1N2h6WSE-16" target="2a2gIR5KuYaO1N2h6WSE-17" edge="1">
          <mxGeometry relative="1" as="geometry" />
        </mxCell>
        <mxCell id="2a2gIR5KuYaO1N2h6WSE-16" value="L&#39;algorithme de recherche renvoie False" style="rounded=1;whiteSpace=wrap;html=1;" parent="1" vertex="1">
          <mxGeometry x="10" y="400" width="190" height="60" as="geometry" />
        </mxCell>
        <mxCell id="2a2gIR5KuYaO1N2h6WSE-20" value="" style="edgeStyle=orthogonalEdgeStyle;rounded=0;orthogonalLoop=1;jettySize=auto;html=1;" parent="1" source="2a2gIR5KuYaO1N2h6WSE-17" target="2a2gIR5KuYaO1N2h6WSE-19" edge="1">
          <mxGeometry relative="1" as="geometry" />
        </mxCell>
        <mxCell id="2a2gIR5KuYaO1N2h6WSE-17" value="la recette n&#39;est pas conservé dans le résultat de recherche" style="rounded=1;whiteSpace=wrap;html=1;" parent="1" vertex="1">
          <mxGeometry x="10" y="540" width="190" height="60" as="geometry" />
        </mxCell>
        <mxCell id="2a2gIR5KuYaO1N2h6WSE-24" value="" style="edgeStyle=orthogonalEdgeStyle;rounded=0;orthogonalLoop=1;jettySize=auto;html=1;" parent="1" source="2a2gIR5KuYaO1N2h6WSE-19" target="2a2gIR5KuYaO1N2h6WSE-23" edge="1">
          <mxGeometry relative="1" as="geometry" />
        </mxCell>
        <mxCell id="2a2gIR5KuYaO1N2h6WSE-25" value="Oui" style="edgeLabel;html=1;align=center;verticalAlign=middle;resizable=0;points=[];" parent="2a2gIR5KuYaO1N2h6WSE-24" vertex="1" connectable="0">
          <mxGeometry x="-0.1852" relative="1" as="geometry">
            <mxPoint as="offset" />
          </mxGeometry>
        </mxCell>
        <mxCell id="2a2gIR5KuYaO1N2h6WSE-19" value="&lt;div&gt;L&#39;algorithme de recherche à passer en revue&amp;nbsp;&lt;/div&gt;&lt;div&gt;toute les recettes&lt;/div&gt;" style="rhombus;whiteSpace=wrap;html=1;rounded=1;" parent="1" vertex="1">
          <mxGeometry x="301.5" y="485" width="185" height="170" as="geometry" />
        </mxCell>
        <mxCell id="2a2gIR5KuYaO1N2h6WSE-21" value="" style="endArrow=classic;html=1;rounded=0;entryX=0.5;entryY=1;entryDx=0;entryDy=0;exitX=0.5;exitY=0.029;exitDx=0;exitDy=0;exitPerimeter=0;" parent="1" source="2a2gIR5KuYaO1N2h6WSE-19" target="2a2gIR5KuYaO1N2h6WSE-10" edge="1">
          <mxGeometry width="50" height="50" relative="1" as="geometry">
            <mxPoint x="390" y="500" as="sourcePoint" />
            <mxPoint x="440" y="450" as="targetPoint" />
          </mxGeometry>
        </mxCell>
        <mxCell id="2a2gIR5KuYaO1N2h6WSE-22" value="Non" style="edgeLabel;html=1;align=center;verticalAlign=middle;resizable=0;points=[];" parent="2a2gIR5KuYaO1N2h6WSE-21" vertex="1" connectable="0">
          <mxGeometry x="0.2331" y="-2" relative="1" as="geometry">
            <mxPoint as="offset" />
          </mxGeometry>
        </mxCell>
        <mxCell id="2a2gIR5KuYaO1N2h6WSE-23" value="L&#39;algorithme de recherche renvoie le résultat de la recherche en affiche les recettes correspondant à celle-ci" style="whiteSpace=wrap;html=1;rounded=1;" parent="1" vertex="1">
          <mxGeometry x="270" y="790" width="250" height="60" as="geometry" />
        </mxCell>
        <mxCell id="2a2gIR5KuYaO1N2h6WSE-28" value="" style="endArrow=classic;html=1;rounded=0;exitX=1;exitY=0.5;exitDx=0;exitDy=0;" parent="1" source="2a2gIR5KuYaO1N2h6WSE-10" edge="1">
          <mxGeometry width="50" height="50" relative="1" as="geometry">
            <mxPoint x="700" y="330" as="sourcePoint" />
            <mxPoint x="720" y="400" as="targetPoint" />
            <Array as="points">
              <mxPoint x="720" y="230" />
            </Array>
          </mxGeometry>
        </mxCell>
        <mxCell id="2a2gIR5KuYaO1N2h6WSE-29" value="&lt;div&gt;Recherche &lt;b&gt;contenu&lt;/b&gt; dans&amp;nbsp;&lt;/div&gt;&lt;div&gt;les éléments de la recettes&lt;/div&gt;&lt;div&gt;(titre, ingrédients, description, etc.)&lt;br&gt;&lt;/div&gt;" style="edgeLabel;html=1;align=center;verticalAlign=middle;resizable=0;points=[];" parent="2a2gIR5KuYaO1N2h6WSE-28" vertex="1" connectable="0">
          <mxGeometry x="0.1713" y="-1" relative="1" as="geometry">
            <mxPoint as="offset" />
          </mxGeometry>
        </mxCell>
        <mxCell id="2a2gIR5KuYaO1N2h6WSE-32" value="" style="edgeStyle=orthogonalEdgeStyle;rounded=0;orthogonalLoop=1;jettySize=auto;html=1;" parent="1" source="2a2gIR5KuYaO1N2h6WSE-30" target="2a2gIR5KuYaO1N2h6WSE-31" edge="1">
          <mxGeometry relative="1" as="geometry" />
        </mxCell>
        <mxCell id="2a2gIR5KuYaO1N2h6WSE-30" value="L&#39;algorithme de recherche renvoie True" style="rounded=1;whiteSpace=wrap;html=1;" parent="1" vertex="1">
          <mxGeometry x="630" y="400" width="190" height="60" as="geometry" />
        </mxCell>
        <mxCell id="2a2gIR5KuYaO1N2h6WSE-31" value="la recette est conservé dans le résultat de recherche" style="whiteSpace=wrap;html=1;rounded=1;" parent="1" vertex="1">
          <mxGeometry x="665" y="540" width="120" height="60" as="geometry" />
        </mxCell>
        <mxCell id="2a2gIR5KuYaO1N2h6WSE-33" value="" style="endArrow=classic;html=1;rounded=0;exitX=0;exitY=0.5;exitDx=0;exitDy=0;entryX=1;entryY=0.5;entryDx=0;entryDy=0;" parent="1" source="2a2gIR5KuYaO1N2h6WSE-31" target="2a2gIR5KuYaO1N2h6WSE-19" edge="1">
          <mxGeometry width="50" height="50" relative="1" as="geometry">
            <mxPoint x="560" y="585" as="sourcePoint" />
            <mxPoint x="610" y="535" as="targetPoint" />
          </mxGeometry>
        </mxCell>
      </root>
    </mxGraphModel>
  </diagram>
</mxfile>
